<svg width="32" height="32" viewBox="-2 -2 70 94" fill="none" xmlns="http://www.w3.org/2000/svg">
<path d="M1 88V1.48H36.52C43.82 1.48 49.6 2.82 53.89 5.5C58.17 8.14 61.24 11.54 63.1 15.7C64.95 19.82 65.88 24.12 65.88 28.61C65.88 31.74 65.32 34.92 64.21 38.13C63.14 41.3 61.43 44.23 59.08 46.91C56.77 49.54 53.74 51.68 50 53.33C46.29 54.94 41.8 55.74 36.52 55.74H16.01V88H1ZM16.01 40.66H37.26C40.23 40.66 42.6 40.07 44.37 38.87C46.18 37.64 47.48 36.09 48.26 34.24C49.05 32.38 49.44 30.51 49.44 28.61C49.44 26.88 49.07 25.09 48.33 23.24C47.63 21.34 46.39 19.76 44.62 18.48C42.85 17.2 40.4 16.56 37.26 16.56H16.01V40.66Z" fill="#2C7A7B"/>
</svg>
